<?xml version="1.0" standalone="no"?>
<!DOCTYPE svg PUBLIC "-//W3C//DTD SVG 20010904//EN"
 "http://www.w3.org/TR/2001/REC-SVG-20010904/DTD/svg10.dtd">
<svg version="1.0" xmlns="http://www.w3.org/2000/svg"
viewBox="0 0 1024.000000 1024.000000"
 preserveAspectRatio="xMidYMid meet">

<g transform="translate(0.000000,1024.000000) scale(0.100000,-0.100000)"
fill="#000000" stroke="none">
<path d="M9032 8281 c-18 -32 -38 -76 -46 -97 -94 -257 -201 -553 -346 -959
-38 -104 -89 -243 -114 -309 -25 -65 -50 -132 -55 -150 -5 -17 -30 -87 -56
-156 -25 -69 -70 -192 -100 -275 -29 -82 -76 -211 -105 -285 -62 -162 -120
-323 -204 -565 -35 -99 -84 -233 -110 -297 -25 -65 -46 -122 -46 -128 0 -6
-37 -108 -82 -228 -45 -119 -105 -284 -135 -365 -65 -181 -116 -321 -149 -404
-13 -34 -24 -82 -24 -107 0 -46 0 -46 35 -46 47 0 71 38 130 210 26 74 62 176
80 225 19 50 72 198 120 330 47 132 104 285 125 340 22 55 47 125 56 155 14
50 172 480 230 627 13 34 24 66 24 72 0 10 112 300 181 470 44 107 75 153 102
149 18 -2 27 -19 50 -88 43 -128 220 -843 347 -1400 22 -96 51 -215 64 -265
13 -49 40 -164 60 -255 21 -91 46 -203 58 -250 11 -47 30 -132 42 -188 13 -57
29 -108 37 -113 8 -5 31 -9 52 -9 l37 0 0 44 c0 49 -15 129 -60 311 -16 66
-45 190 -65 275 -34 146 -72 307 -110 465 -34 139 -77 323 -105 450 -16 72
-42 186 -59 255 -16 69 -41 177 -55 240 -15 63 -37 156 -51 205 -13 50 -27
106 -30 125 -4 19 -32 141 -62 270 -47 202 -54 245 -50 305 2 39 10 82 16 98
9 23 16 27 51 27 32 0 42 -4 50 -22 12 -27 53 -185 81 -308 10 -47 30 -125 43
-175 13 -49 38 -153 56 -230 47 -208 98 -425 130 -560 16 -66 43 -181 60 -255
18 -74 47 -196 65 -270 18 -74 47 -200 65 -280 88 -397 203 -868 238 -970 24
-69 46 -77 68 -23 21 48 14 159 -15 253 -11 36 -29 108 -40 160 -10 52 -28
131 -39 175 -11 44 -37 154 -57 245 -21 91 -64 273 -95 405 -32 132 -72 303
-90 380 -18 77 -48 205 -67 285 -19 80 -48 204 -64 275 -17 72 -39 164 -50
205 -10 41 -26 108 -34 148 -8 40 -26 117 -39 170 -14 53 -41 167 -60 252 -20
85 -48 205 -62 265 -37 152 -43 268 -16 327 39 88 89 71 117 -40 10 -37 32
-121 50 -187 18 -66 48 -185 65 -265 41 -185 94 -414 120 -510 11 -41 29 -115
39 -165 10 -49 28 -126 39 -170 11 -44 34 -143 52 -220 63 -283 103 -452 121
-515 10 -36 25 -103 33 -150 9 -47 28 -132 42 -190 119 -489 183 -762 213
-911 32 -155 67 -209 128 -197 28 5 28 59 -1 172 -14 56 -42 171 -61 256 -20
85 -48 209 -64 275 -16 66 -43 183 -61 260 -18 77 -41 176 -52 220 -11 44 -27
109 -34 145 -8 36 -27 119 -43 185 -16 66 -43 183 -61 260 -18 77 -48 205 -67
285 -19 80 -48 204 -64 275 -17 72 -42 173 -55 225 -14 52 -31 129 -39 170 -7
41 -23 109 -33 150 -11 41 -34 138 -52 215 -18 77 -47 203 -65 280 -115 486
-123 548 -85 648 48 127 86 58 185 -336 40 -160 78 -319 85 -352 6 -33 34
-152 61 -265 112 -457 168 -700 198 -845 10 -49 28 -130 41 -180 45 -185 90
-374 116 -490 14 -66 55 -239 90 -385 35 -146 76 -317 90 -380 15 -63 38 -160
51 -215 14 -55 33 -138 43 -185 16 -73 39 -168 81 -336 8 -28 19 -45 35 -53
75 -34 79 46 15 316 -42 179 -88 381 -96 423 -3 19 -17 73 -30 120 -26 97 -79
318 -125 530 -18 80 -58 253 -90 385 -32 132 -64 267 -70 300 -6 33 -20 89
-30 125 -21 71 -60 241 -91 390 -11 52 -28 124 -39 160 -11 36 -31 119 -45
185 -32 146 -67 296 -90 390 -25 104 -69 289 -109 467 -50 218 -107 466 -118
510 -8 36 -80 118 -103 118 -6 0 -25 -26 -43 -59z"/>
<path d="M8167 8288 c-35 -47 -39 -56 -105 -243 -33 -93 -79 -219 -102 -280
-23 -60 -70 -191 -106 -290 -36 -99 -76 -209 -91 -245 -14 -36 -36 -94 -49
-130 -12 -36 -68 -191 -124 -345 -56 -154 -119 -331 -141 -393 -22 -63 -65
-175 -96 -250 -30 -75 -73 -183 -94 -240 -41 -110 -71 -162 -95 -162 -19 0
-58 85 -79 170 -9 36 -31 121 -49 190 -46 169 -162 627 -171 670 -10 53 -64
284 -90 385 -13 50 -26 110 -30 135 -4 25 -17 86 -31 135 -13 50 -42 167 -64
260 -23 94 -52 215 -65 270 -13 55 -32 138 -43 185 -24 100 -55 178 -77 186
-21 8 -58 -2 -84 -23 -21 -18 -43 -71 -141 -343 -27 -74 -72 -198 -100 -275
-28 -77 -75 -207 -105 -290 -29 -82 -67 -185 -84 -228 -29 -72 -100 -271 -261
-722 -33 -93 -71 -199 -85 -235 -59 -156 -191 -515 -227 -620 -46 -135 -162
-452 -219 -597 -21 -56 -39 -106 -39 -112 0 -6 -11 -39 -24 -73 -13 -35 -52
-139 -86 -233 -33 -93 -72 -199 -85 -235 -67 -183 -98 -268 -129 -352 -18 -51
-55 -151 -81 -223 -81 -220 -245 -675 -280 -775 -19 -52 -57 -156 -85 -230
-29 -74 -63 -169 -77 -210 -13 -41 -33 -100 -45 -130 -132 -365 -137 -381
-109 -409 18 -18 24 -19 47 -9 33 15 46 41 100 200 25 72 51 143 59 159 8 15
40 99 69 186 30 87 71 201 91 253 20 52 74 201 120 330 47 129 112 312 146
405 34 94 80 224 104 290 23 66 59 162 80 214 20 52 45 122 55 155 10 34 54
156 98 271 43 116 98 266 122 335 23 69 64 181 90 250 103 272 121 320 165
445 26 72 68 189 94 260 27 72 51 144 55 160 9 38 143 368 196 481 40 88 61
107 87 82 18 -19 133 -406 169 -568 14 -63 34 -146 44 -185 25 -90 80 -322
119 -500 17 -77 41 -178 52 -225 12 -47 28 -112 36 -145 8 -33 23 -98 35 -145
11 -47 31 -130 45 -185 13 -55 37 -156 52 -225 45 -194 82 -334 93 -347 13
-16 71 -27 101 -19 34 8 72 99 247 586 62 174 207 576 272 755 28 77 79 219
114 315 34 96 97 270 139 385 42 116 98 271 125 345 27 74 81 223 120 330 39
107 96 263 125 345 30 83 70 193 90 245 20 52 47 127 60 165 43 129 192 539
217 600 14 33 31 78 38 100 6 22 25 75 41 118 28 74 29 81 14 103 -21 33 -49
30 -78 -8z m-1714 -363 c21 -55 81 -280 127 -480 17 -71 50 -211 74 -310 24
-99 47 -200 51 -225 3 -25 17 -85 31 -135 13 -49 54 -216 89 -370 36 -154 75
-318 86 -365 32 -129 67 -280 99 -432 16 -75 34 -147 41 -159 6 -12 12 -50 13
-83 1 -51 -4 -70 -30 -116 -51 -89 -66 -83 -107 47 -32 99 -77 275 -158 618
-17 72 -41 171 -54 220 -13 50 -26 108 -30 130 -3 22 -17 85 -30 140 -14 55
-45 188 -70 295 -25 107 -57 242 -71 300 -24 101 -52 217 -108 455 -40 171
-66 315 -66 370 0 32 9 69 25 103 20 44 29 53 47 50 17 -2 27 -16 41 -53z
m-204 -454 c24 -24 56 -109 80 -214 11 -45 42 -176 71 -292 64 -263 107 -450
115 -495 4 -19 19 -82 35 -140 15 -58 42 -168 59 -245 47 -213 91 -399 118
-510 26 -102 51 -210 96 -415 14 -63 36 -146 47 -184 34 -107 14 -213 -46
-252 -23 -15 -27 -16 -41 -2 -18 19 -77 211 -98 323 -8 44 -22 100 -30 125 -8
25 -26 95 -39 155 -21 99 -103 445 -141 600 -8 33 -28 119 -44 190 -32 140
-86 371 -131 555 -122 504 -144 625 -131 697 13 64 37 123 50 123 6 0 19 -8
30 -19z m-150 -539 c21 -40 152 -541 171 -652 6 -36 20 -96 30 -135 37 -134
129 -521 150 -630 12 -60 28 -130 36 -155 8 -25 23 -88 33 -140 11 -52 30
-140 44 -195 14 -55 39 -165 57 -245 17 -80 43 -191 57 -247 41 -165 23 -291
-45 -301 -24 -4 -37 16 -58 91 -8 29 -28 95 -44 147 -15 52 -42 154 -58 225
-17 72 -46 195 -65 275 -19 80 -49 208 -67 285 -32 140 -68 291 -133 565 -19
80 -49 208 -67 285 -17 77 -42 185 -56 240 -91 376 -108 496 -85 583 11 39 14
42 46 42 30 0 37 -5 54 -38z"/>
<path d="M8751 8291 c-10 -18 -30 -71 -176 -471 -30 -80 -72 -194 -95 -255
-23 -60 -63 -173 -90 -250 -26 -77 -58 -165 -70 -195 -12 -30 -53 -140 -90
-245 -68 -190 -85 -237 -220 -605 -40 -107 -89 -242 -110 -300 -21 -58 -63
-175 -94 -260 -32 -85 -95 -261 -141 -390 -46 -129 -105 -289 -130 -355 -26
-66 -68 -183 -95 -260 -26 -77 -69 -196 -95 -265 -26 -69 -55 -150 -64 -180
-10 -30 -39 -110 -64 -177 -61 -158 -61 -194 -2 -179 29 7 54 59 129 266 31
85 88 243 127 350 39 107 97 269 129 360 32 91 86 242 120 335 34 94 81 224
105 290 23 66 50 138 60 160 9 22 30 76 45 120 16 44 45 125 65 180 20 55 58
163 85 240 26 77 69 196 95 265 25 69 66 179 90 245 24 66 66 183 94 260 29
77 76 210 105 295 29 86 58 166 65 178 7 12 50 129 96 260 46 130 106 298 135
372 39 104 50 145 48 180 -3 38 -7 46 -25 48 -14 2 -26 -4 -32 -17z"/>
<path d="M6109 8290 c-20 -11 -60 -104 -138 -320 -67 -183 -144 -391 -203
-550 -22 -58 -51 -141 -65 -185 -14 -44 -72 -204 -128 -355 -145 -385 -168
-448 -218 -595 -25 -71 -66 -186 -92 -255 -25 -69 -65 -179 -87 -245 -23 -66
-50 -140 -60 -165 -11 -25 -44 -112 -73 -195 -30 -82 -88 -244 -130 -360 -42
-115 -101 -277 -130 -360 -30 -82 -73 -199 -95 -260 -23 -60 -61 -166 -85
-235 -23 -69 -60 -168 -80 -220 -21 -52 -66 -176 -101 -275 -80 -232 -223
-624 -287 -790 -27 -71 -58 -155 -68 -185 -39 -120 -175 -493 -224 -618 -15
-37 -25 -83 -25 -112 0 -48 1 -50 29 -50 16 0 33 6 39 13 14 17 55 118 112
277 27 74 76 209 110 300 34 91 77 208 95 260 19 52 61 172 95 265 86 236 139
384 203 565 31 85 72 198 92 250 20 52 65 176 100 275 34 99 104 293 155 430
51 138 109 297 130 355 20 58 61 170 90 250 29 80 72 199 95 265 24 66 69 190
100 275 32 85 75 205 97 265 106 298 154 431 241 670 52 143 109 298 127 345
18 47 58 159 90 250 31 91 78 221 104 290 26 69 67 181 91 250 53 153 96 270
137 373 29 75 30 78 13 97 -20 22 -32 24 -56 10z"/>
<path d="M8458 8287 c-17 -13 -71 -145 -117 -287 -15 -47 -42 -119 -59 -160
-17 -41 -44 -113 -60 -160 -16 -47 -59 -166 -96 -265 -37 -99 -91 -247 -121
-330 -29 -82 -74 -206 -100 -275 -26 -69 -71 -192 -100 -275 -29 -82 -70 -195
-90 -250 -20 -55 -61 -167 -90 -250 -30 -82 -72 -199 -95 -260 -23 -60 -70
-189 -104 -285 -82 -229 -201 -556 -278 -760 -21 -58 -54 -148 -72 -200 -68
-193 -138 -388 -173 -478 -24 -62 -33 -100 -29 -118 6 -23 11 -25 49 -22 42 3
42 3 70 73 16 39 55 144 87 235 32 91 79 221 105 290 25 69 70 193 100 275 90
254 173 484 226 625 28 74 84 227 124 340 100 283 191 533 292 810 47 129 107
296 134 370 52 143 166 456 267 731 33 91 79 219 101 285 22 65 54 157 71 204
37 100 37 144 0 147 -14 2 -32 -3 -42 -10z"/>
<path d="M2014 8284 c-6 -3 -30 -53 -52 -112 -71 -185 -232 -622 -232 -630 0
-4 -27 -81 -61 -172 -33 -91 -87 -237 -119 -325 -32 -88 -86 -236 -121 -330
-101 -273 -156 -427 -229 -637 -38 -108 -81 -225 -95 -260 -34 -81 -49 -119
-73 -193 -11 -33 -37 -105 -57 -160 -20 -55 -47 -131 -60 -170 -12 -38 -34
-95 -48 -125 -21 -47 -98 -262 -142 -395 -7 -22 -45 -128 -85 -235 -39 -107
-98 -269 -130 -360 -32 -91 -69 -194 -82 -230 -32 -84 -28 -100 22 -100 34 0
42 4 55 30 28 53 221 572 320 860 18 52 63 176 100 275 37 99 91 248 120 330
30 83 81 224 115 315 34 91 92 254 131 362 38 108 85 238 105 290 20 51 46
127 59 168 13 41 46 134 73 205 27 72 73 193 101 270 27 77 78 214 112 305 33
91 87 239 119 330 32 91 65 183 74 205 19 50 166 457 166 461 0 5 -58 34 -67
33 -4 0 -13 -3 -19 -5z"/>
<path d="M5533 8280 c-39 -16 -52 -44 -168 -365 -24 -66 -89 -246 -145 -400
-56 -154 -145 -399 -196 -545 -52 -146 -113 -312 -135 -370 -23 -58 -59 -157
-81 -220 -22 -63 -62 -173 -90 -245 -28 -71 -70 -188 -95 -260 -24 -71 -80
-224 -122 -340 -43 -115 -84 -228 -91 -250 -7 -22 -39 -110 -72 -195 -33 -85
-86 -229 -118 -320 -32 -91 -75 -208 -95 -260 -20 -52 -52 -140 -72 -194 -54
-155 -159 -418 -193 -485 -17 -35 -37 -61 -46 -61 -8 0 -23 19 -34 42 -34 77
-156 547 -280 1078 -22 96 -49 209 -60 250 -19 70 -40 163 -95 405 -12 55 -32
138 -44 185 -61 239 -133 547 -151 640 -18 98 -37 175 -94 395 -13 50 -38 155
-56 235 -41 186 -95 413 -121 515 -22 82 -49 200 -94 410 -25 116 -64 260 -87
318 -10 26 -14 28 -66 25 l-56 -3 -27 -75 c-15 -41 -53 -142 -84 -225 -31 -82
-83 -224 -115 -315 -80 -226 -229 -639 -285 -790 -26 -69 -57 -154 -70 -190
-13 -36 -55 -153 -95 -260 -39 -107 -98 -269 -130 -360 -74 -206 -182 -502
-250 -685 -28 -76 -71 -196 -95 -265 -24 -69 -82 -231 -130 -360 -203 -550
-295 -815 -295 -849 0 -27 4 -31 36 -37 44 -8 1264 3 1312 12 52 10 68 69 24
91 -9 4 -264 8 -567 8 -603 0 -620 1 -639 56 -12 36 0 76 30 95 34 23 252 33
719 33 210 1 365 5 387 12 34 9 38 13 38 44 0 19 -6 37 -12 42 -7 4 -233 8
-503 8 -298 1 -502 5 -520 11 -24 8 -31 17 -33 42 -4 43 21 88 55 96 15 3 186
10 378 16 413 11 524 16 548 25 27 11 23 71 -5 80 -13 5 -203 11 -423 15 -220
3 -408 10 -417 14 -27 12 -25 106 2 131 26 23 171 33 490 34 130 1 252 6 272
12 33 8 38 14 38 38 0 55 -6 55 -359 62 -179 3 -334 10 -343 14 -35 14 -23 89
46 286 87 249 226 636 324 899 28 74 70 189 94 255 77 206 94 239 116 212 23
-27 105 -309 187 -637 20 -80 44 -176 55 -215 10 -38 24 -97 30 -130 6 -33 24
-114 40 -180 77 -320 100 -419 125 -530 14 -66 35 -158 47 -205 11 -47 26
-114 34 -150 8 -36 25 -108 38 -160 29 -111 57 -227 96 -395 16 -66 35 -147
44 -180 30 -110 118 -489 137 -585 10 -52 29 -138 43 -190 14 -52 41 -167 62
-255 20 -88 49 -209 64 -270 16 -60 31 -130 35 -155 3 -25 14 -74 25 -110 10
-36 26 -91 35 -123 l16 -58 57 3 56 3 34 80 c31 74 80 207 217 590 29 83 101
281 160 440 59 160 115 317 125 350 9 33 39 114 65 180 26 66 73 194 105 285
32 91 87 244 123 340 36 96 77 209 91 250 29 89 212 595 251 695 15 39 38 102
50 140 13 39 39 113 59 165 19 52 78 214 132 360 53 146 127 351 166 455 38
105 96 267 129 360 33 94 75 208 94 255 18 47 51 137 73 200 22 63 60 171 85
240 26 69 91 249 145 400 54 151 116 321 136 377 49 134 43 169 -21 143z
m-2900 -418 c26 -28 63 -146 118 -372 27 -113 60 -250 74 -305 13 -55 40 -167
60 -250 19 -82 45 -188 56 -235 12 -47 34 -143 49 -215 51 -235 71 -319 90
-385 16 -59 49 -195 117 -495 14 -60 40 -173 59 -250 19 -77 43 -180 53 -230
11 -49 34 -151 52 -225 17 -74 44 -189 59 -255 15 -66 37 -156 48 -200 20 -79
49 -204 112 -480 17 -77 45 -195 61 -261 36 -148 45 -260 27 -328 -26 -100
-42 -76 -114 171 -44 153 -58 206 -128 513 -19 80 -70 296 -114 480 -141 590
-184 773 -203 865 -10 50 -39 173 -64 275 -78 321 -123 514 -130 550 -6 32
-90 384 -150 630 -14 58 -34 146 -44 195 -10 50 -49 218 -86 375 -65 277 -78
366 -62 423 9 32 36 36 60 9z m-155 -493 c25 -66 90 -310 123 -459 11 -47 44
-184 74 -305 30 -121 59 -245 64 -275 6 -30 26 -122 46 -205 20 -82 52 -217
72 -300 20 -82 46 -197 58 -255 13 -58 32 -141 43 -185 12 -44 35 -141 52
-215 17 -74 47 -198 65 -275 47 -193 87 -364 125 -535 18 -80 52 -228 77 -330
201 -837 233 -987 233 -1086 0 -63 -27 -124 -54 -124 -25 0 -77 179 -195 675
-17 72 -53 224 -81 340 -63 256 -106 441 -131 560 -10 50 -33 146 -49 215 -38
154 -78 321 -120 505 -34 145 -80 344 -129 550 -16 66 -41 172 -56 235 -15 63
-40 169 -56 235 -17 66 -37 151 -44 190 -8 38 -32 147 -55 240 -91 383 -103
435 -125 540 -13 61 -29 135 -36 166 -10 46 -10 62 1 88 18 43 50 83 64 78 6
-2 22 -32 34 -68z m-201 -371 c21 -26 53 -132 103 -330 28 -112 59 -237 70
-278 24 -92 74 -309 105 -450 35 -162 84 -370 100 -423 8 -27 19 -76 25 -110
6 -34 20 -90 30 -125 11 -34 26 -103 35 -152 9 -50 20 -103 26 -118 6 -15 21
-74 34 -132 12 -58 30 -136 40 -175 56 -229 70 -289 85 -370 10 -49 29 -133
42 -185 31 -114 75 -301 83 -350 7 -40 67 -292 95 -395 10 -38 23 -97 30 -130
6 -33 20 -94 30 -135 11 -41 35 -145 55 -230 19 -85 49 -212 65 -282 42 -180
39 -242 -19 -306 -41 -44 -56 -41 -75 16 -16 49 -117 448 -180 712 -21 85 -48
200 -61 255 -14 55 -41 170 -60 255 -20 85 -49 209 -65 275 -16 66 -45 192
-66 280 -20 88 -45 193 -56 232 -10 40 -27 114 -38 165 -10 51 -28 134 -40
183 -12 50 -37 155 -56 235 -19 80 -46 188 -59 240 -13 52 -26 115 -30 140 -4
25 -19 92 -35 150 -27 99 -40 156 -125 530 -20 85 -46 200 -60 255 -13 55 -27
116 -30 135 -4 19 -27 117 -51 217 -49 201 -51 225 -28 304 30 99 55 130 81
97z"/>
<path d="M5785 8263 c-4 -10 -26 -72 -50 -138 -24 -66 -64 -176 -90 -245 -25
-69 -59 -161 -74 -205 -16 -44 -56 -154 -90 -245 -34 -91 -97 -264 -141 -385
-135 -381 -218 -609 -230 -640 -22 -53 -70 -186 -130 -355 -32 -91 -75 -208
-95 -260 -33 -85 -62 -164 -195 -540 -61 -172 -118 -329 -155 -425 -43 -111
-240 -655 -272 -750 -24 -69 -87 -244 -185 -505 -27 -74 -76 -209 -108 -300
-32 -91 -70 -196 -85 -235 -31 -79 -132 -358 -254 -700 -44 -126 -88 -246 -97
-265 -18 -38 -21 -147 -5 -163 13 -13 7 -19 65 71 45 71 69 130 226 571 27 75
81 224 120 331 39 107 91 251 115 320 23 69 64 179 90 245 26 66 60 158 76
205 15 47 48 141 74 210 26 69 79 217 120 330 40 113 93 257 118 320 25 63 54
144 65 180 11 36 44 128 72 205 28 77 76 208 105 290 29 83 82 229 118 325 36
96 102 276 146 400 44 124 101 281 126 350 47 125 130 354 229 635 30 83 74
204 99 270 25 66 52 143 62 170 22 64 51 146 115 320 28 77 78 214 110 305 32
91 68 187 79 214 12 26 21 61 21 77 0 28 -2 29 -44 29 -32 0 -46 -5 -51 -17z"/>
<path d="M1678 8203 c-30 -67 -108 -270 -133 -349 -7 -23 -43 -122 -80 -220
-36 -98 -77 -208 -90 -244 -13 -36 -46 -130 -75 -210 -57 -158 -102 -280 -181
-495 -28 -77 -61 -169 -74 -205 -12 -36 -45 -126 -72 -200 -28 -74 -66 -180
-86 -235 -35 -100 -129 -361 -208 -575 -98 -268 -183 -502 -220 -610 -22 -63
-63 -173 -91 -245 -27 -71 -79 -213 -115 -315 -160 -452 -156 -437 -127 -460
39 -33 95 22 132 128 11 31 41 113 67 182 25 69 84 231 131 360 47 129 115
314 151 410 36 96 91 249 123 340 32 91 77 215 100 275 23 61 66 180 95 265
30 85 85 241 124 345 61 166 165 452 331 910 26 72 68 187 94 258 25 70 66
182 90 250 25 67 68 185 96 262 84 227 140 398 140 422 0 21 -5 23 -46 23
l-45 0 -31 -67z"/>
<path d="M2286 8248 c-17 -27 -78 -180 -116 -292 -57 -168 -155 -439 -210
-581 -10 -27 -55 -151 -99 -275 -44 -124 -110 -306 -146 -405 -37 -99 -104
-283 -150 -410 -46 -126 -95 -261 -110 -300 -15 -38 -62 -169 -105 -290 -87
-242 -177 -491 -240 -660 -22 -60 -79 -216 -125 -345 -46 -129 -104 -291 -130
-360 -101 -271 -155 -435 -149 -452 4 -13 16 -18 43 -18 46 0 52 7 79 85 11
33 53 148 92 255 39 107 111 305 160 440 118 328 248 687 305 840 26 69 71
193 100 275 61 171 252 696 406 1120 22 61 62 173 88 250 27 77 79 219 116
315 37 96 82 220 101 275 18 55 69 199 113 319 44 121 78 223 75 228 -3 4 -23
8 -44 8 -30 0 -43 -5 -54 -22z"/>
</g>
</svg>
